<?xml version="1.0" encoding="UTF-8"?>
<svg xmlns="http://www.w3.org/2000/svg" version="1.1" viewBox="0 0 397.4 397.4">
  <defs>
    <style>
      .cls-1 {
        fill: #fff;
      }

      .cls-2 {
        fill: #4c5270;
      }
    </style>
  </defs>
  <!-- Generator: Adobe Illustrator 28.6.0, SVG Export Plug-In . SVG Version: 1.2.0 Build 709)  -->
  <g>
    <g id="Layer_2">
      <g id="objects">
        <g>
          <path class="cls-2" d="M397.4,198.7c0,109.7-88.9,198.7-198.7,198.7h0c-109.7,0-198.7-89-198.7-198.7h0C0,88.9,88.9,0,198.7,0h0c109.7,0,198.7,88.9,198.7,198.7h0Z"/>
          <path class="cls-1" d="M151,320.9c3.9-3.6,20-20.3,28.5-54.9l6.4-26.3c6,6.3,14.4,10.4,23.2,12.6,35.6,8.8,70.1-29.3,79-65.8,12.6-51.2-13.5-96.3-56.8-106.9-49.8-12.2-108.6,12.1-123,70.6-5,20.6-3.4,51.7,24.5,66.5,2.9,1.5,6.4,0,7.1-3.2l3.9-15.8c.4-1.8-.3-3.7-1.7-5-9.9-9-12.2-23.7-8.9-37.5,9.7-39.6,50.4-55.8,85-47.3,30,7.4,48.3,38,39.8,72.7-6.1,24.7-23.2,52-48,45.9-14.8-3.6-16.5-18.1-12.5-34.5l9.1-37.1c2.3-9.6-3.5-19.2-13-21.6-9.6-2.3-24.7,4.4-29.5,24.2-2.9,11.6-.5,20.8,3.9,26.9l-18.2,74.4c-8.4,34.3-2,56.4-.1,61.7"/>
        </g>
      </g>
    </g>
  </g>
</svg>