<?xml version="1.0" encoding="UTF-8"?>
<svg id="Layer_2" xmlns="http://www.w3.org/2000/svg" viewBox="0 0 65.07 65.07">
  <defs>
    <style>
      .cls-1 {
        fill: #4c5270;
      }
    </style>
  </defs>
  <g id="OBJECTS">
    <path id="ivoox" class="cls-1" d="M45.68,0h-26.3C8.69,0,0,8.7,0,19.38v26.3c0,10.69,8.69,19.39,19.38,19.39h26.3c10.69,0,19.39-8.7,19.39-19.39v-26.3c0-10.68-8.7-19.38-19.39-19.38ZM27.67,11.86c3.1,0,5.6,2.51,5.6,5.6s-2.51,5.6-5.6,5.6-5.6-2.51-5.6-5.6,2.51-5.6,5.6-5.6ZM33.66,32.54v32.01h-10.61v-28.21h-9.49v-10.69h15.59c2.49,0,4.52,2.02,4.52,4.52v2.38Z"/>
  </g>
</svg>