<?xml version="1.0" encoding="UTF-8"?>
<svg xmlns="http://www.w3.org/2000/svg" version="1.1" viewBox="0 0 397.4 397.4">
  <defs>
    <style>
      .cls-1 {
        fill: #fff;
      }

      .cls-2 {
        fill: #4c5270;
      }
    </style>
  </defs>
  <!-- Generator: Adobe Illustrator 28.6.0, SVG Export Plug-In . SVG Version: 1.2.0 Build 709)  -->
  <g>
    <g id="Layer_2">
      <g id="objects">
        <g>
          <path class="cls-2" d="M397.4,198.7c0,109.7-88.9,198.7-198.7,198.7h0c-109.7,0-198.7-89-198.7-198.7h0C0,88.9,88.9,0,198.7,0h0c109.7,0,198.7,88.9,198.7,198.7h0Z"/>
          <path class="cls-1" d="M227.4,180.4l80.4-86h-30.5l-63.1,67.5-48.3-67.5h-83.5l84.5,118-84.5,90.4h30.5l67.2-71.9,51.5,71.9h83.5l-87.7-122.5h0ZM125.3,116.6h29.1l117.6,164.2h-29.1L125.3,116.6Z"/>
        </g>
      </g>
    </g>
  </g>
</svg>