<?xml version="1.0" encoding="UTF-8"?>
<svg id="Layer_2" xmlns="http://www.w3.org/2000/svg" viewBox="0 0 64.31 64.31">
  <defs>
    <style>
      .cls-1 {
        fill: #f652a0;
      }
    </style>
  </defs>
  <g id="OBJECTS">
    <g>
      <path class="cls-1" d="M16.53,23.48v20.29c0,.06.05.11.11.11h31.04c.06,0,.11-.05.11-.11v-19.97l-15.65,11.22-15.61-11.54Z"/>
      <path class="cls-1" d="M45.64,0h-26.97C8.36,0,0,8.36,0,18.67v26.97c0,10.31,8.36,18.67,18.67,18.67h26.97c10.31,0,18.67-8.36,18.67-18.67v-26.97c0-10.31-8.36-18.67-18.67-18.67ZM52.41,43.77c0,2.61-2.13,4.74-4.74,4.74h-31.04c-2.61,0-4.74-2.13-4.74-4.74v-23.23c0-2.61,2.13-4.74,4.74-4.74h31.04c2.61,0,4.74,2.13,4.74,4.74v23.23Z"/>
      <polygon class="cls-1" points="44.52 20.43 20.2 20.43 32.18 29.29 44.52 20.43"/>
    </g>
  </g>
</svg>