<?xml version="1.0" encoding="UTF-8"?>
<svg id="Layer_2" xmlns="http://www.w3.org/2000/svg" viewBox="0 0 65.07 65.07">
  <defs>
    <style>
      .cls-1 {
        fill: #4c5270;
      }
    </style>
  </defs>
  <g id="OBJECTS">
    <g>
      <path class="cls-1" d="M24.69,34.87c-.72-.33-1.73-.5-3.04-.51h-6.52v8.09h6.42c1.32,0,2.34-.17,3.07-.53,1.33-.66,1.99-1.92,1.99-3.79,0-1.58-.64-2.67-1.93-3.25Z"/>
      <path class="cls-1" d="M45.68,0h-26.3C8.69,0,0,8.7,0,19.38v26.3c0,10.69,8.69,19.39,19.38,19.39h26.3c10.69,0,19.39-8.7,19.39-19.39v-26.3c0-10.68-8.7-19.38-19.39-19.38ZM39.98,18.61h12.23v3.04h-12.23v-3.04ZM31.67,43.4c-.58.94-1.29,1.74-2.15,2.39-.97.74-2.11,1.25-3.43,1.52-1.32.27-2.75.41-4.29.41h-13.68v-30.37h14.66c3.7.06,6.32,1.13,7.86,3.23.93,1.29,1.39,2.84,1.39,4.64s-.47,3.34-1.4,4.47c-.52.63-1.29,1.21-2.31,1.73,1.54.57,2.72,1.46,3.5,2.68.79,1.22,1.18,2.71,1.18,4.45s-.44,3.42-1.35,4.85ZM56.93,37.5h-15.84c.09,2.19.84,3.71,2.27,4.59.86.55,1.91.82,3.13.82,1.29,0,2.35-.33,3.16-1,.44-.36.83-.86,1.17-1.49h5.8c-.15,1.29-.85,2.6-2.11,3.93-1.95,2.12-4.68,3.18-8.18,3.18-2.9,0-5.45-.89-7.66-2.68-2.21-1.79-3.32-4.69-3.32-8.71,0-3.77,1-6.66,2.99-8.67,2-2.01,4.59-3.02,7.78-3.02,1.89,0,3.59.34,5.11,1.02,1.52.68,2.77,1.75,3.75,3.22.89,1.3,1.47,2.79,1.73,4.5.15.99.21,2.43.19,4.32Z"/>
      <path class="cls-1" d="M24.77,28.57c.82-.5,1.23-1.39,1.23-2.67,0-1.41-.54-2.35-1.63-2.8-.94-.31-2.13-.47-3.58-.47h-5.65v6.7h6.43c1.32,0,2.39-.25,3.21-.75Z"/>
      <path class="cls-1" d="M46.14,29.13c-1.46,0-2.59.42-3.39,1.25-.81.83-1.31,1.95-1.52,3.37h9.8c-.11-1.51-.61-2.66-1.52-3.44-.9-.78-2.03-1.18-3.37-1.18Z"/>
    </g>
  </g>
</svg>