<?xml version="1.0" encoding="UTF-8"?>
<svg id="Layer_2" xmlns="http://www.w3.org/2000/svg" viewBox="0 0 65.07 65.07">
  <defs>
    <style>
      .cls-1 {
        fill: #4c5270;
      }
    </style>
  </defs>
  <g id="OBJECTS">
    <g id="spoty">
      <path class="cls-1" d="M45.68,0h-26.3C8.69,0,0,8.7,0,19.38v26.3c0,10.69,8.69,19.39,19.38,19.39h26.3c10.69,0,19.39-8.7,19.39-19.39v-26.3c0-10.68-8.7-19.38-19.39-19.38ZM32.53,55.67c-12.44,0-22.56-10.12-22.56-22.56s10.12-22.57,22.56-22.57,22.57,10.12,22.57,22.57-10.13,22.56-22.57,22.56Z"/>
      <path class="cls-1" d="M43.88,34.73c-2.34-1.37-5-2.34-7.94-2.9-2.31-.43-4.78-.61-7.36-.53-4.37.14-7.52,1-7.64,1.03-.92.26-1.46,1.2-1.21,2.12.26.92,1.21,1.46,2.12,1.21.03,0,2.95-.79,6.94-.92,3.59-.11,8.83.31,13.36,2.97.27.15.57.23.87.23.6,0,1.17-.31,1.49-.85.49-.83.2-1.88-.62-2.36Z"/>
      <path class="cls-1" d="M47.24,28.03c-2.87-1.68-6.14-2.87-9.74-3.56-2.83-.54-5.87-.76-9.04-.65-5.35.17-9.21,1.22-9.37,1.27-1.13.31-1.79,1.47-1.48,2.6.31,1.13,1.47,1.79,2.6,1.48.14-.04,14.11-3.78,24.89,2.51.34.2.71.29,1.07.29.72,0,1.43-.37,1.82-1.05.6-1,.26-2.31-.76-2.89Z"/>
      <path class="cls-1" d="M41.28,40.71c-1.97-1.15-4.23-1.97-6.71-2.44-1.95-.37-4.04-.52-6.21-.45-3.69.12-6.35.84-6.46.88-.77.21-1.23,1.01-1.01,1.79.21.77,1.01,1.23,1.79,1.02.03,0,2.49-.67,5.86-.77,3.03-.09,7.46.26,11.28,2.5.23.14.49.2.73.2.5,0,.99-.26,1.26-.72.41-.69.17-1.58-.52-1.99Z"/>
    </g>
  </g>
</svg>