<svg xmlns="http://www.w3.org/2000/svg" width="48.434" height="47.951" viewBox="0 0 48.434 47.951">
  <g id="Grupo_455" data-name="Grupo 455" transform="translate(15954 4274.486)">
    <path id="Trazado_156" data-name="Trazado 156" d="M50.462-63.155H44.233c-6.159-5.359,2.614-8.038,1.742-13.4H34.31c.872,5.359-7.9,8.037-1.742,13.4H26.339c-7.449-6.479,7.447-9.719,0-16.2v-13.81h6.229v11.441H44.233V-93.165h6.229v13.81c7.449,6.48-7.449,9.72,0,16.2" transform="translate(-15968.025 -4173.967)"/>
    <path id="Trazado_157" data-name="Trazado 157" d="M9.047-8.171a3.422,3.422,0,0,1,2.609-1.168,3.421,3.421,0,0,1,2.608,1.167l.676-.545a4.31,4.31,0,0,0-3.284-1.475A4.311,4.311,0,0,0,8.37-8.716Z" transform="translate(-15959.192 -4220.302)" fill-rule="evenodd"/>
    <path id="Trazado_158" data-name="Trazado 158" d="M27.609-6.851A3.422,3.422,0,0,1,25-5.684,3.421,3.421,0,0,1,22.392-6.85l-.676.545A4.31,4.31,0,0,0,25-4.831a4.311,4.311,0,0,0,3.285-1.476Z" transform="translate(-15966.645 -4222.167)" fill-rule="evenodd"/>
    <path id="Trazado_159" data-name="Trazado 159" d="M35.737-8.171a3.422,3.422,0,0,1,2.609-1.168,3.421,3.421,0,0,1,2.608,1.167l.676-.545a4.31,4.31,0,0,0-3.284-1.475,4.311,4.311,0,0,0-3.285,1.476Z" transform="translate(-15974.098 -4220.302)" fill-rule="evenodd"/>
    <path id="Trazado_160" data-name="Trazado 160" d="M54.3-6.851A3.422,3.422,0,0,1,51.69-5.684,3.421,3.421,0,0,1,49.083-6.85l-.676.545A4.31,4.31,0,0,0,51.69-4.831a4.311,4.311,0,0,0,3.285-1.476Z" transform="translate(-15981.55 -4222.167)" fill-rule="evenodd"/>
    <path id="Trazado_161" data-name="Trazado 161" d="M62.426-8.171a3.422,3.422,0,0,1,2.609-1.168,3.421,3.421,0,0,1,2.608,1.167l.676-.545a4.31,4.31,0,0,0-3.284-1.475,4.311,4.311,0,0,0-3.285,1.476Z" transform="translate(-15989.001 -4220.302)" fill-rule="evenodd"/>
    <path id="Trazado_162" data-name="Trazado 162" d="M80.988-6.851a3.422,3.422,0,0,1-2.609,1.168A3.421,3.421,0,0,1,75.771-6.85l-.676.545a4.31,4.31,0,0,0,3.284,1.475,4.311,4.311,0,0,0,3.285-1.476Z" transform="translate(-15996.453 -4222.167)" fill-rule="evenodd"/>
    <path id="Trazado_163" data-name="Trazado 163" d="M89.116-8.171a3.422,3.422,0,0,1,2.609-1.168,3.421,3.421,0,0,1,2.608,1.167l.676-.545a4.309,4.309,0,0,0-3.284-1.475A4.311,4.311,0,0,0,88.44-8.716Z" transform="translate(-16003.906 -4220.302)" fill-rule="evenodd"/>
    <path id="Trazado_164" data-name="Trazado 164" d="M4.938-6.851A3.593,3.593,0,0,1,2.224-5.765l0,.924A4.525,4.525,0,0,0,5.614-6.307Z" transform="translate(-15955.76 -4222.167)" fill-rule="evenodd"/>
    <path id="Trazado_165" data-name="Trazado 165" d="M102.451-6.851a3.948,3.948,0,0,0,2.86,1.11l.011.9a4.89,4.89,0,0,1-3.547-1.466Z" transform="translate(-16011.353 -4222.167)" fill-rule="evenodd"/>
    <path id="Trazado_166" data-name="Trazado 166" d="M9.047-8.171a3.422,3.422,0,0,1,2.609-1.168,3.421,3.421,0,0,1,2.608,1.167l.676-.545a4.31,4.31,0,0,0-3.284-1.475A4.311,4.311,0,0,0,8.371-8.716Z" transform="translate(-15959.192 -4220.302)" fill-rule="evenodd"/>
    <path id="Trazado_167" data-name="Trazado 167" d="M3.035-108.019v44.893a.9.9,0,0,1-.9.9.9.9,0,0,1-.9-.9V-108.92a.9.9,0,0,1,.9-.9H48.706a.9.9,0,0,1,.9.9v45.987a.9.9,0,0,1-.9.9.9.9,0,0,1-.9-.9v-45.085Z" transform="translate(-15955.206 -4164.665)" fill-rule="evenodd"/>
    <path id="Trazado_168" data-name="Trazado 168" d="M8.17-8.4a.464.464,0,0,0,.643-.06,2.958,2.958,0,0,1,2.256-1.005,2.957,2.957,0,0,1,2.256,1,.463.463,0,0,0,.643.06l.676-.545a.463.463,0,0,0,.171-.318.464.464,0,0,0-.109-.344,4.774,4.774,0,0,0-3.636-1.637A4.775,4.775,0,0,0,7.432-9.6a.463.463,0,0,0-.109.344.463.463,0,0,0,.171.318Z" transform="translate(-15958.606 -4219.715)" fill-rule="evenodd"/>
    <path id="Trazado_169" data-name="Trazado 169" d="M27.313-7.8a.463.463,0,0,0-.643.06,2.958,2.958,0,0,1-2.256,1.005,2.957,2.957,0,0,1-2.256-1,.463.463,0,0,0-.643-.06l-.676.545a.463.463,0,0,0-.171.318.464.464,0,0,0,.109.344,4.774,4.774,0,0,0,3.636,1.637,4.775,4.775,0,0,0,3.637-1.638.464.464,0,0,0,.109-.344.463.463,0,0,0-.171-.318Z" transform="translate(-15966.059 -4221.581)" fill-rule="evenodd"/>
    <path id="Trazado_170" data-name="Trazado 170" d="M34.86-8.4a.463.463,0,0,0,.643-.06A2.958,2.958,0,0,1,37.76-9.461a2.957,2.957,0,0,1,2.256,1,.463.463,0,0,0,.643.06l.676-.545a.463.463,0,0,0,.171-.318A.464.464,0,0,0,41.4-9.6a4.774,4.774,0,0,0-3.636-1.637A4.775,4.775,0,0,0,34.122-9.6a.464.464,0,0,0-.109.344.463.463,0,0,0,.171.318Z" transform="translate(-15973.511 -4219.715)" fill-rule="evenodd"/>
    <path id="Trazado_171" data-name="Trazado 171" d="M54-7.8a.463.463,0,0,0-.643.06A2.959,2.959,0,0,1,51.1-6.733a2.957,2.957,0,0,1-2.256-1,.464.464,0,0,0-.643-.06l-.676.545a.463.463,0,0,0-.171.318.464.464,0,0,0,.109.344A4.774,4.774,0,0,0,51.1-4.954a4.775,4.775,0,0,0,3.637-1.638.463.463,0,0,0,.109-.344.463.463,0,0,0-.171-.318Z" transform="translate(-15980.964 -4221.581)" fill-rule="evenodd"/>
    <path id="Trazado_172" data-name="Trazado 172" d="M61.549-8.4a.463.463,0,0,0,.643-.06,2.958,2.958,0,0,1,2.256-1.005,2.957,2.957,0,0,1,2.256,1,.463.463,0,0,0,.643.06l.676-.545a.463.463,0,0,0,.171-.318.464.464,0,0,0-.109-.344,4.774,4.774,0,0,0-3.636-1.637A4.775,4.775,0,0,0,60.811-9.6a.463.463,0,0,0-.109.344.463.463,0,0,0,.171.318Z" transform="translate(-15988.415 -4219.715)" fill-rule="evenodd"/>
    <path id="Trazado_173" data-name="Trazado 173" d="M80.692-7.8a.463.463,0,0,0-.643.06,2.958,2.958,0,0,1-2.257,1.005,2.957,2.957,0,0,1-2.256-1,.463.463,0,0,0-.643-.06l-.676.545a.463.463,0,0,0-.171.318.463.463,0,0,0,.109.344,4.774,4.774,0,0,0,3.636,1.637A4.775,4.775,0,0,0,81.43-6.591a.463.463,0,0,0,.109-.344.463.463,0,0,0-.171-.318Z" transform="translate(-15995.867 -4221.581)" fill-rule="evenodd"/>
    <path id="Trazado_174" data-name="Trazado 174" d="M88.239-8.4a.463.463,0,0,0,.643-.06,2.958,2.958,0,0,1,2.256-1.005,2.957,2.957,0,0,1,2.256,1,.464.464,0,0,0,.643.06l.676-.545a.461.461,0,0,0,.171-.318.463.463,0,0,0-.109-.344,4.774,4.774,0,0,0-3.636-1.637A4.775,4.775,0,0,0,87.5-9.6a.463.463,0,0,0-.109.344.463.463,0,0,0,.171.318Z" transform="translate(-16003.319 -4219.715)" fill-rule="evenodd"/>
    <path id="Trazado_175" data-name="Trazado 175" d="M4.643-7.8A.463.463,0,0,0,4-7.738a3.121,3.121,0,0,1-2.362.924.464.464,0,0,0-.328.136.464.464,0,0,0-.135.329l0,.924a.463.463,0,0,0,.463.461A5,5,0,0,0,5.38-6.591a.464.464,0,0,0,.109-.344.463.463,0,0,0-.171-.318Z" transform="translate(-15955.174 -4221.581)" fill-rule="evenodd"/>
    <path id="Trazado_176" data-name="Trazado 176" d="M102.217-7.738a.464.464,0,0,0-.643-.06l-.676.545a.463.463,0,0,0-.171.318.463.463,0,0,0,.11.344,5.38,5.38,0,0,0,3.9,1.628.463.463,0,0,0,.33-.138.464.464,0,0,0,.134-.331l-.011-.9a.464.464,0,0,0-.464-.458A3.456,3.456,0,0,1,102.217-7.738Z" transform="translate(-16010.767 -4221.581)" fill-rule="evenodd"/>
    <path id="Trazado_177" data-name="Trazado 177" d="M8.17-8.4a.464.464,0,0,0,.643-.06A2.958,2.958,0,0,1,11.07-9.461a2.957,2.957,0,0,1,2.256,1,.463.463,0,0,0,.643.06l.676-.545a.463.463,0,0,0,.171-.318.464.464,0,0,0-.109-.344,4.774,4.774,0,0,0-3.636-1.637A4.775,4.775,0,0,0,7.433-9.6a.463.463,0,0,0-.109.344.463.463,0,0,0,.171.318Z" transform="translate(-15958.606 -4219.715)" fill-rule="evenodd"/>
  </g>
</svg>
